<svg width="32" height="32" viewBox="0 0 32 32" fill="none" xmlns="http://www.w3.org/2000/svg">
<g id="carbon:task-asset-view">
<path id="Vector" d="M22.5 26C21.8078 26 21.1311 25.7947 20.5555 25.4101C19.9799 25.0256 19.5313 24.4789 19.2664 23.8394C19.0015 23.1999 18.9322 22.4961 19.0673 21.8172C19.2023 21.1383 19.5356 20.5146 20.0251 20.0251C20.5146 19.5356 21.1383 19.2023 21.8172 19.0673C22.4961 18.9322 23.1999 19.0015 23.8394 19.2664C24.4789 19.5313 25.0256 19.9799 25.4101 20.5555C25.7947 21.1311 26 21.8078 26 22.5C25.9989 23.4279 25.6299 24.3176 24.9737 24.9737C24.3176 25.6299 23.4279 25.9989 22.5 26ZM22.5 21C22.2033 21 21.9133 21.088 21.6666 21.2528C21.42 21.4176 21.2277 21.6519 21.1142 21.926C21.0007 22.2001 20.9709 22.5017 21.0288 22.7926C21.0867 23.0836 21.2296 23.3509 21.4393 23.5607C21.6491 23.7704 21.9164 23.9133 22.2074 23.9712C22.4983 24.0291 22.7999 23.9994 23.074 23.8858C23.3481 23.7723 23.5824 23.58 23.7472 23.3334C23.912 23.0867 24 22.7967 24 22.5C23.9995 22.1023 23.8413 21.7211 23.5601 21.4399C23.2789 21.1587 22.8977 21.0005 22.5 21Z" fill="#CE00FF"/>
<path id="Vector_2" d="M22.5 31C20.8189 31 19.1755 30.5015 17.7777 29.5675C16.3798 28.6335 15.2904 27.306 14.647 25.7528C14.0037 24.1996 13.8354 22.4906 14.1633 20.8417C14.4913 19.1929 15.3008 17.6783 16.4896 16.4896C17.6783 15.3008 19.1929 14.4913 20.8417 14.1633C22.4906 13.8354 24.1996 14.0037 25.7528 14.647C27.306 15.2904 28.6335 16.3798 29.5675 17.7777C30.5015 19.1755 31 20.8189 31 22.5C30.9974 24.7535 30.101 26.914 28.5075 28.5075C26.914 30.101 24.7535 30.9974 22.5 31ZM22.5 16C21.2144 16 19.9577 16.3812 18.8888 17.0955C17.8199 17.8097 16.9868 18.8248 16.4948 20.0126C16.0028 21.2003 15.8741 22.5072 16.1249 23.7681C16.3757 25.029 16.9948 26.1872 17.9038 27.0962C18.8129 28.0052 19.971 28.6243 21.2319 28.8751C22.4928 29.1259 23.7997 28.9972 24.9874 28.5052C26.1752 28.0133 27.1903 27.1801 27.9046 26.1112C28.6188 25.0423 29 23.7856 29 22.5C28.9982 20.7767 28.3127 19.1244 27.0942 17.9059C25.8756 16.6873 24.2233 16.0019 22.5 16Z" fill="#CE00FF"/>
<path id="Vector_3" d="M25 5H22V4C21.9984 3.47005 21.7872 2.96227 21.4125 2.58753C21.0377 2.2128 20.5299 2.00158 20 2H12C11.4701 2.00158 10.9623 2.2128 10.5875 2.58753C10.2128 2.96227 10.0016 3.47005 10 4V5H7C6.47005 5.00158 5.96227 5.2128 5.58753 5.58753C5.2128 5.96227 5.00158 6.47005 5 7V28C5.00158 28.5299 5.2128 29.0377 5.58753 29.4125C5.96227 29.7872 6.47005 29.9984 7 30H12V28H7V7H10V10H22V7H25V12H27V7C26.9984 6.47005 26.7872 5.96227 26.4125 5.58753C26.0377 5.2128 25.5299 5.00158 25 5ZM20 8H12V4H20V8Z" fill="#CE00FF"/>
</g>
</svg>
