<svg width="38" height="39" viewBox="0 0 38 39" fill="none" xmlns="http://www.w3.org/2000/svg">
<g id="healthicons:money-bag-outline">
<g id="Group">
<path id="Vector" fill-rule="evenodd" clip-rule="evenodd" d="M22.7779 20.0419C22.5595 19.4082 22.1551 18.8595 21.6203 18.4715C21.0855 18.0834 20.4466 17.875 19.7917 17.875V17.0625H18.2084V17.875C17.3685 17.875 16.563 18.2174 15.9692 18.8269C15.3753 19.4364 15.0417 20.263 15.0417 21.125C15.0417 21.987 15.3753 22.8136 15.9692 23.4231C16.563 24.0326 17.3685 24.375 18.2084 24.375V27.625C17.5196 27.625 16.933 27.1741 16.7145 26.5419C16.6821 26.4385 16.6298 26.3428 16.5607 26.2605C16.4916 26.1782 16.4071 26.1109 16.3123 26.0627C16.2174 26.0145 16.1141 25.9863 16.0085 25.9797C15.9028 25.9732 15.7969 25.9885 15.6971 26.0247C15.5973 26.0609 15.5056 26.1172 15.4274 26.1904C15.3492 26.2636 15.2861 26.3522 15.2418 26.4509C15.1975 26.5496 15.1729 26.6564 15.1696 26.7649C15.1662 26.8735 15.1841 26.9817 15.2222 27.0831C15.4406 27.7168 15.845 28.2655 16.3798 28.6535C16.9145 29.0416 17.5534 29.25 18.2084 29.25V30.0625H19.7917V29.25C20.6315 29.25 21.437 28.9076 22.0309 28.2981C22.6247 27.6886 22.9584 26.862 22.9584 26C22.9584 25.138 22.6247 24.3114 22.0309 23.7019C21.437 23.0924 20.6315 22.75 19.7917 22.75V19.5C20.1191 19.4999 20.4385 19.604 20.7059 19.798C20.9733 19.992 21.1756 20.2662 21.2848 20.5831C21.3547 20.7863 21.5004 20.9526 21.6898 21.0456C21.7836 21.0916 21.8854 21.1182 21.9892 21.1239C22.093 21.1296 22.1969 21.1142 22.2949 21.0787C22.393 21.0432 22.4832 20.9882 22.5606 20.9168C22.6379 20.8455 22.7008 20.7592 22.7456 20.663C22.7905 20.5667 22.8164 20.4623 22.8219 20.3557C22.8274 20.2492 22.8125 20.1426 22.7779 20.0419ZM18.2084 19.5C17.7884 19.5 17.3857 19.6712 17.0888 19.976C16.7918 20.2807 16.625 20.694 16.625 21.125C16.625 21.556 16.7918 21.9693 17.0888 22.274C17.3857 22.5788 17.7884 22.75 18.2084 22.75V19.5ZM19.7917 27.625C20.2116 27.625 20.6143 27.4538 20.9113 27.149C21.2082 26.8443 21.375 26.431 21.375 26C21.375 25.569 21.2082 25.1557 20.9113 24.851C20.6143 24.5462 20.2116 24.375 19.7917 24.375V27.625Z" fill="#221824"/>
<path id="Vector_2" fill-rule="evenodd" clip-rule="evenodd" d="M10.4128 7.00456C12.3555 6.02875 15.5428 4.875 19.0309 4.875C22.4461 4.875 25.5495 5.98081 27.4819 6.94362L27.5912 6.99806C28.1738 7.29381 28.6441 7.57331 28.975 7.8L26.0506 12.1875C32.7924 19.2611 38 34.1226 19.0309 34.1226C0.0617542 34.1226 5.12921 19.5309 11.9296 12.1875L9.02421 7.8C9.24826 7.64969 9.53246 7.475 9.8713 7.28975C10.0391 7.19713 10.2196 7.10206 10.4128 7.00537V7.00456ZM24.1712 12.129L26.5121 8.61656C24.335 8.77744 21.7447 9.30231 19.251 10.0433C17.4697 10.5714 15.4905 10.491 13.6578 10.1441C13.196 10.0562 12.7373 9.95158 12.2827 9.83044L13.8027 12.1274C17.0604 13.3177 20.9127 13.3177 24.1712 12.129ZM12.8883 13.5119C16.7002 15.0231 21.2816 15.0231 25.0935 13.5103C26.6846 15.2317 28.0156 17.1879 29.0423 19.3139C30.1126 21.5548 30.6953 23.7949 30.6003 25.7254C30.5085 27.5884 29.7944 29.1801 28.1635 30.3631C26.4638 31.5957 23.6051 32.4976 19.0301 32.4976C14.4503 32.4976 11.5781 31.6111 9.86259 30.3924C8.21988 29.224 7.49867 27.6543 7.39655 25.8164C7.28967 23.907 7.85967 21.6783 8.92605 19.422C9.94334 17.2705 11.3628 15.1994 12.8883 13.5119ZM11.9779 8.05675C12.6113 8.25013 13.2731 8.41831 13.9444 8.54587C15.6465 8.86762 17.3533 8.91475 18.81 8.48169C20.5075 7.97415 22.234 7.575 23.9796 7.2865C22.5229 6.83638 20.8193 6.5 19.0301 6.5C16.3028 6.5 13.7592 7.28081 11.9779 8.05675Z" fill="#221824"/>
</g>
</g>
</svg>
