<svg width="33" height="32" viewBox="0 0 33 32" fill="none" xmlns="http://www.w3.org/2000/svg">
<g id="Group">
<path id="Vector" fill-rule="evenodd" clip-rule="evenodd" d="M26.5834 30.2222C27.7989 30.2222 28.9647 29.754 29.8243 28.9205C30.6838 28.087 31.1667 26.9565 31.1667 25.7778C31.1667 24.599 30.6838 23.4686 29.8243 22.6351C28.9647 21.8016 27.7989 21.3333 26.5834 21.3333C25.3678 21.3333 24.202 21.8016 23.3424 22.6351C22.4829 23.4686 22 24.599 22 25.7778C22 26.9565 22.4829 28.087 23.3424 28.9205C24.202 29.754 25.3678 30.2222 26.5834 30.2222ZM26.5834 32C28.2852 32 29.9173 31.3444 31.1206 30.1775C32.324 29.0106 33 27.428 33 25.7778C33 24.1275 32.324 22.5449 31.1206 21.378C29.9173 20.2111 28.2852 19.5555 26.5834 19.5555C24.8815 19.5555 23.2494 20.2111 22.0461 21.378C20.8427 22.5449 20.1667 24.1275 20.1667 25.7778C20.1667 27.428 20.8427 29.0106 22.0461 30.1775C23.2494 31.3444 24.8815 32 26.5834 32Z" fill="#221824"/>
<path id="Vector_2" fill-rule="evenodd" clip-rule="evenodd" d="M26.5834 22.6667C26.8265 22.6667 27.0596 22.7603 27.2315 22.927C27.4034 23.0937 27.5 23.3198 27.5 23.5556V25.4098L28.1481 26.0382C28.3151 26.2059 28.4075 26.4304 28.4054 26.6635C28.4033 26.8965 28.3069 27.1195 28.1369 27.2843C27.967 27.4491 27.7371 27.5426 27.4967 27.5446C27.2564 27.5466 27.0248 27.457 26.8519 27.2951L25.6667 26.1458V23.5556C25.6667 23.3198 25.7633 23.0937 25.9352 22.927C26.1071 22.7603 26.3402 22.6667 26.5834 22.6667ZM7.33335 15.1111H5.50002V16.8889H7.33335V15.1111ZM5.50002 13.3333C5.01379 13.3333 4.54747 13.5206 4.20366 13.854C3.85984 14.1874 3.66669 14.6396 3.66669 15.1111V16.8889C3.66669 17.3604 3.85984 17.8126 4.20366 18.146C4.54747 18.4794 5.01379 18.6667 5.50002 18.6667H7.33335C7.81958 18.6667 8.2859 18.4794 8.62972 18.146C8.97353 17.8126 9.16669 17.3604 9.16669 16.8889V15.1111C9.16669 14.6396 8.97353 14.1874 8.62972 13.854C8.2859 13.5206 7.81958 13.3333 7.33335 13.3333H5.50002ZM14.6667 15.1111H12.8334V16.8889H14.6667V15.1111ZM12.8334 13.3333C12.3471 13.3333 11.8808 13.5206 11.537 13.854C11.1932 14.1874 11 14.6396 11 15.1111V16.8889C11 17.3604 11.1932 17.8126 11.537 18.146C11.8808 18.4794 12.3471 18.6667 12.8334 18.6667H14.6667C15.1529 18.6667 15.6192 18.4794 15.963 18.146C16.3069 17.8126 16.5 17.3604 16.5 16.8889V15.1111C16.5 14.6396 16.3069 14.1874 15.963 13.854C15.6192 13.5206 15.1529 13.3333 14.6667 13.3333H12.8334ZM22 15.1111H20.1667V16.8889H22V15.1111ZM20.1667 13.3333C19.6805 13.3333 19.2141 13.5206 18.8703 13.854C18.5265 14.1874 18.3334 14.6396 18.3334 15.1111V16.8889C18.3334 17.3604 18.5265 17.8126 18.8703 18.146C19.2141 18.4794 19.6805 18.6667 20.1667 18.6667H22C22.4863 18.6667 22.9526 18.4794 23.2964 18.146C23.6402 17.8126 23.8334 17.3604 23.8334 16.8889V15.1111C23.8334 14.6396 23.6402 14.1874 23.2964 13.854C22.9526 13.5206 22.4863 13.3333 22 13.3333H20.1667ZM7.33335 22.2222H5.50002V24H7.33335V22.2222ZM5.50002 20.4445C5.01379 20.4445 4.54747 20.6318 4.20366 20.9652C3.85984 21.2986 3.66669 21.7507 3.66669 22.2222V24C3.66669 24.4715 3.85984 24.9237 4.20366 25.2571C4.54747 25.5905 5.01379 25.7778 5.50002 25.7778H7.33335C7.81958 25.7778 8.2859 25.5905 8.62972 25.2571C8.97353 24.9237 9.16669 24.4715 9.16669 24V22.2222C9.16669 21.7507 8.97353 21.2986 8.62972 20.9652C8.2859 20.6318 7.81958 20.4445 7.33335 20.4445H5.50002ZM14.6667 22.2222H12.8334V24H14.6667V22.2222ZM12.8334 20.4445C12.3471 20.4445 11.8808 20.6318 11.537 20.9652C11.1932 21.2986 11 21.7507 11 22.2222V24C11 24.4715 11.1932 24.9237 11.537 25.2571C11.8808 25.5905 12.3471 25.7778 12.8334 25.7778H14.6667C15.1529 25.7778 15.6192 25.5905 15.963 25.2571C16.3069 24.9237 16.5 24.4715 16.5 24V22.2222C16.5 21.7507 16.3069 21.2986 15.963 20.9652C15.6192 20.6318 15.1529 20.4445 14.6667 20.4445H12.8334Z" fill="#221824"/>
<path id="Vector_3" fill-rule="evenodd" clip-rule="evenodd" d="M1.83333 5.33332C1.83333 5.09758 1.92991 4.87148 2.10182 4.70478C2.27373 4.53808 2.50688 4.44443 2.75 4.44443H7.33333V2.66666H2.75C2.02065 2.66666 1.32118 2.94761 0.805456 3.4477C0.289731 3.9478 0 4.62608 0 5.33332V26.6667C0 27.3739 0.289731 28.0522 0.805456 28.5523C1.32118 29.0524 2.02065 29.3333 2.75 29.3333H21.3171C20.9262 28.7904 20.6275 28.1902 20.4325 27.5555H2.75C2.50688 27.5555 2.27373 27.4619 2.10182 27.2952C1.92991 27.1285 1.83333 26.9024 1.83333 26.6667V5.33332ZM25.6667 19.6178C26.2747 19.5334 26.892 19.5334 27.5 19.6178V5.33332C27.5 4.62608 27.2103 3.9478 26.6945 3.4477C26.1788 2.94761 25.4793 2.66666 24.75 2.66666H22V4.44443H24.75C24.9931 4.44443 25.2263 4.53808 25.3982 4.70478C25.5701 4.87148 25.6667 5.09758 25.6667 5.33332V19.6178ZM9.16667 4.44443H18.8494V2.66666H9.16667V4.44443Z" fill="#221824"/>
<path id="Vector_4" fill-rule="evenodd" clip-rule="evenodd" d="M27.5 10.6667H1.83331V8.88889H27.5V10.6667Z" fill="#221824"/>
<path id="Vector_5" d="M5.5 0.888889C5.5 0.653141 5.59658 0.427049 5.76849 0.26035C5.94039 0.0936507 6.17355 0 6.41667 0C6.65978 0 6.89294 0.0936507 7.06485 0.26035C7.23676 0.427049 7.33333 0.653141 7.33333 0.888889V5.33333C7.33333 5.56908 7.23676 5.79517 7.06485 5.96187C6.89294 6.12857 6.65978 6.22222 6.41667 6.22222C6.17355 6.22222 5.94039 6.12857 5.76849 5.96187C5.59658 5.79517 5.5 5.56908 5.5 5.33333V0.888889ZM18.3333 0.888889C18.3333 0.653141 18.4299 0.427049 18.6018 0.26035C18.7737 0.0936507 19.0069 0 19.25 0C19.4931 0 19.7263 0.0936507 19.8982 0.26035C20.0701 0.427049 20.1667 0.653141 20.1667 0.888889V5.33333C20.1667 5.56908 20.0701 5.79517 19.8982 5.96187C19.7263 6.12857 19.4931 6.22222 19.25 6.22222C19.0069 6.22222 18.7737 6.12857 18.6018 5.96187C18.4299 5.79517 18.3333 5.56908 18.3333 5.33333V0.888889Z" fill="#221824"/>
</g>
</svg>
