<svg width="32" height="31" viewBox="0 0 32 31" fill="none" xmlns="http://www.w3.org/2000/svg">
<g id="carbon:user-profile">
<path id="Vector" d="M12 3.875C12.9889 3.875 13.9556 4.15908 14.7779 4.69132C15.6001 5.22356 16.241 5.98005 16.6194 6.86513C16.9978 7.75021 17.0969 8.72412 16.9039 9.66372C16.711 10.6033 16.2348 11.4664 15.5355 12.1438C14.8363 12.8212 13.9454 13.2825 12.9755 13.4694C12.0055 13.6563 11.0002 13.5604 10.0866 13.1938C9.17295 12.8272 8.39206 12.2063 7.84265 11.4098C7.29324 10.6132 7 9.67675 7 8.71875C7 7.43411 7.52678 6.20208 8.46447 5.2937C9.40215 4.38532 10.6739 3.875 12 3.875ZM12 1.9375C10.6155 1.9375 9.26215 2.33521 8.11101 3.08035C6.95986 3.82548 6.06266 4.88457 5.53284 6.12368C5.00303 7.36279 4.86441 8.72627 5.1345 10.0417C5.4046 11.3571 6.07128 12.5654 7.05025 13.5138C8.02922 14.4622 9.2765 15.108 10.6344 15.3697C11.9922 15.6314 13.3997 15.4971 14.6788 14.9838C15.9579 14.4706 17.0511 13.6014 17.8203 12.4862C18.5895 11.371 19 10.06 19 8.71875C19 6.92025 18.2625 5.19541 16.9497 3.92368C15.637 2.65195 13.8565 1.9375 12 1.9375ZM22 31H20V26.1562C20 24.8716 19.4732 23.6396 18.5355 22.7312C17.5979 21.8228 16.3261 21.3125 15 21.3125H9C7.67392 21.3125 6.40215 21.8228 5.46447 22.7312C4.52678 23.6396 4 24.8716 4 26.1562V31H2V26.1562C2 24.3577 2.7375 22.6329 4.05025 21.3612C5.36301 20.0895 7.14348 19.375 9 19.375H15C16.8565 19.375 18.637 20.0895 19.9497 21.3612C21.2625 22.6329 22 24.3577 22 26.1562V31ZM22 5.8125H32V7.75H22V5.8125ZM22 10.6562H32V12.5938H22V10.6562ZM22 15.5H29V17.4375H22V15.5Z" fill="#221824"/>
</g>
</svg>
